<svg width="391" height="98" viewBox="0 0 391 98" fill="none" xmlns="http://www.w3.org/2000/svg">
<path d="M42.4497 83.4455C67.5335 83.4455 82.9698 74.1307 82.9698 58.703C82.9698 47.3505 73.8045 38.9089 58.8507 36.3861L32.802 32.0198C24.9874 30.9525 20.2601 27.8475 20.2601 23.7723C20.2601 18.1446 27.9782 14.5545 40.5201 14.5545C54.2198 14.5545 62.6132 19.1149 62.7097 26.6832H80.0755C79.6896 10.1881 64.6393 0 40.5201 0C17.1728 0 2.89429 9.02376 2.89429 23.7723C2.89429 35.1248 11.1913 43.3723 24.6015 45.604L50.6502 49.9703C59.9119 51.3287 65.604 54.7247 65.604 58.703C65.604 65.0099 56.8247 68.8911 42.4497 68.8911C27.0134 68.8911 17.4622 63.1663 17.3658 53.8515H0C0.385906 72.2871 16.4975 83.4455 42.4497 83.4455Z" fill="#292930"/>
<path d="M134.558 15.5248C125.007 15.5248 117.386 19.2119 112.369 25.8099V18.4356H95.9677V98H112.369V73.1604C117.386 79.7584 125.007 83.4455 134.558 83.4455C152.503 83.4455 163.501 70.5406 163.501 49.4851C163.501 28.4297 152.503 15.5248 134.558 15.5248ZM129.735 69.8614C118.929 69.8614 112.369 62.099 112.369 49.4851C112.369 36.8713 118.929 29.1089 129.735 29.1089C140.54 29.1089 147.1 36.8713 147.1 49.4851C147.1 62.099 140.54 69.8614 129.735 69.8614Z" fill="#292930"/>
<path d="M223.288 18.4356V25.8099C218.272 19.2119 210.65 15.5248 201.099 15.5248C183.154 15.5248 172.156 28.4297 172.156 49.4851C172.156 70.5406 183.154 83.4455 201.099 83.4455C210.65 83.4455 218.272 79.7584 223.288 73.1604V80.5347H239.689V18.4356H223.288ZM205.923 69.8614C195.117 69.8614 188.557 62.099 188.557 49.4851C188.557 36.8713 195.117 29.1089 205.923 29.1089C216.728 29.1089 223.288 36.8713 223.288 49.4851C223.288 62.099 216.728 69.8614 205.923 69.8614Z" fill="#292930"/>
<path d="M279.217 83.4455C284.137 83.4455 289.829 82.1842 294.17 80.0495V68.4059C290.697 70.5406 286.549 71.802 283.076 71.802C277.673 71.802 274.393 68.1148 274.393 62.099V30.0792H294.17V18.4356H274.393V6.79208H259.439V18.4356H249.791V30.0792H257.992V64.0396C257.992 76.0713 266.096 83.4455 279.217 83.4455Z" fill="#292930"/>
<path d="M335.233 83.4455C356.169 83.4455 369 70.5406 369 49.4851C369 28.4297 356.169 15.5248 335.233 15.5248C314.298 15.5248 301.466 28.4297 301.466 49.4851C301.466 70.5406 314.298 83.4455 335.233 83.4455ZM335.233 69.8614C324.524 69.8614 317.867 62.196 317.867 49.4851C317.867 36.7743 324.524 29.1089 335.233 29.1089C345.942 29.1089 352.599 36.7743 352.599 49.4851C352.599 62.196 345.942 69.8614 335.233 69.8614Z" fill="#292930"/>
<path d="M375 66H391V82H375V66Z" fill="#5956E9"/>
</svg>
